<mxfile host="app.diagrams.net" modified="2023-10-23T22:27:34.377Z" agent="Mozilla/5.0 (Windows NT 10.0; Win64; x64) AppleWebKit/537.36 (KHTML, like Gecko) Chrome/118.0.0.0 Safari/537.36 Edg/118.0.2088.61" etag="wMqWqHa8eEB_q19cQFmt" version="22.0.6" type="device">
  <diagram name="Page-1" id="2JphEn8HqCkv8Bs4syvc">
    <mxGraphModel dx="933" dy="531" grid="1" gridSize="10" guides="1" tooltips="1" connect="1" arrows="1" fold="1" page="1" pageScale="1" pageWidth="827" pageHeight="1169" math="0" shadow="0">
      <root>
        <mxCell id="0" />
        <mxCell id="1" parent="0" />
        <mxCell id="Po7H30uP2uQ3qFQVbLjI-19" style="edgeStyle=orthogonalEdgeStyle;rounded=0;orthogonalLoop=1;jettySize=auto;html=1;endArrow=block;endFill=0;dashed=1;exitX=0;exitY=0.75;exitDx=0;exitDy=0;" edge="1" parent="1" source="Po7H30uP2uQ3qFQVbLjI-1" target="Po7H30uP2uQ3qFQVbLjI-18">
          <mxGeometry relative="1" as="geometry" />
        </mxCell>
        <mxCell id="Po7H30uP2uQ3qFQVbLjI-40" style="edgeStyle=orthogonalEdgeStyle;rounded=0;orthogonalLoop=1;jettySize=auto;html=1;" edge="1" parent="1" source="Po7H30uP2uQ3qFQVbLjI-1" target="Po7H30uP2uQ3qFQVbLjI-35">
          <mxGeometry relative="1" as="geometry" />
        </mxCell>
        <mxCell id="Po7H30uP2uQ3qFQVbLjI-1" value="GameState" style="rounded=0;whiteSpace=wrap;html=1;" vertex="1" parent="1">
          <mxGeometry x="320" y="190" width="120" height="60" as="geometry" />
        </mxCell>
        <mxCell id="Po7H30uP2uQ3qFQVbLjI-15" style="edgeStyle=orthogonalEdgeStyle;rounded=0;orthogonalLoop=1;jettySize=auto;html=1;entryX=0.5;entryY=1;entryDx=0;entryDy=0;endArrow=classic;endFill=1;" edge="1" parent="1" source="Po7H30uP2uQ3qFQVbLjI-2" target="Po7H30uP2uQ3qFQVbLjI-1">
          <mxGeometry relative="1" as="geometry" />
        </mxCell>
        <mxCell id="Po7H30uP2uQ3qFQVbLjI-2" value="Player" style="rounded=0;whiteSpace=wrap;html=1;" vertex="1" parent="1">
          <mxGeometry x="320" y="310" width="120" height="60" as="geometry" />
        </mxCell>
        <mxCell id="Po7H30uP2uQ3qFQVbLjI-6" style="edgeStyle=orthogonalEdgeStyle;rounded=0;orthogonalLoop=1;jettySize=auto;html=1;entryX=0.5;entryY=1;entryDx=0;entryDy=0;exitX=0.5;exitY=0;exitDx=0;exitDy=0;endArrow=block;endFill=0;" edge="1" parent="1" source="Po7H30uP2uQ3qFQVbLjI-3" target="Po7H30uP2uQ3qFQVbLjI-2">
          <mxGeometry relative="1" as="geometry">
            <Array as="points">
              <mxPoint x="250" y="410" />
              <mxPoint x="380" y="410" />
            </Array>
          </mxGeometry>
        </mxCell>
        <mxCell id="Po7H30uP2uQ3qFQVbLjI-3" value="HumanPlayer" style="rounded=0;whiteSpace=wrap;html=1;" vertex="1" parent="1">
          <mxGeometry x="190" y="460" width="120" height="60" as="geometry" />
        </mxCell>
        <mxCell id="Po7H30uP2uQ3qFQVbLjI-42" style="edgeStyle=orthogonalEdgeStyle;rounded=0;orthogonalLoop=1;jettySize=auto;html=1;endArrow=none;endFill=0;" edge="1" parent="1" source="Po7H30uP2uQ3qFQVbLjI-5">
          <mxGeometry relative="1" as="geometry">
            <mxPoint x="380" y="410" as="targetPoint" />
            <Array as="points">
              <mxPoint x="530" y="410" />
            </Array>
          </mxGeometry>
        </mxCell>
        <mxCell id="Po7H30uP2uQ3qFQVbLjI-45" style="edgeStyle=orthogonalEdgeStyle;rounded=0;orthogonalLoop=1;jettySize=auto;html=1;endArrow=none;endFill=0;" edge="1" parent="1" source="Po7H30uP2uQ3qFQVbLjI-4">
          <mxGeometry relative="1" as="geometry">
            <mxPoint x="380" y="410" as="targetPoint" />
            <Array as="points">
              <mxPoint x="380" y="450" />
              <mxPoint x="380" y="450" />
            </Array>
          </mxGeometry>
        </mxCell>
        <mxCell id="Po7H30uP2uQ3qFQVbLjI-4" value="AIType1" style="rounded=0;whiteSpace=wrap;html=1;" vertex="1" parent="1">
          <mxGeometry x="330" y="460" width="120" height="60" as="geometry" />
        </mxCell>
        <mxCell id="Po7H30uP2uQ3qFQVbLjI-5" value="AIType2&lt;br&gt;" style="rounded=0;whiteSpace=wrap;html=1;" vertex="1" parent="1">
          <mxGeometry x="470" y="460" width="120" height="60" as="geometry" />
        </mxCell>
        <mxCell id="Po7H30uP2uQ3qFQVbLjI-13" value="AIType..." style="rounded=0;whiteSpace=wrap;html=1;" vertex="1" parent="1">
          <mxGeometry x="610" y="460" width="120" height="60" as="geometry" />
        </mxCell>
        <mxCell id="Po7H30uP2uQ3qFQVbLjI-16" value="2..6" style="text;html=1;strokeColor=none;fillColor=none;align=center;verticalAlign=middle;whiteSpace=wrap;rounded=0;" vertex="1" parent="1">
          <mxGeometry x="350" y="290" width="30" height="20" as="geometry" />
        </mxCell>
        <mxCell id="Po7H30uP2uQ3qFQVbLjI-20" style="edgeStyle=orthogonalEdgeStyle;rounded=0;orthogonalLoop=1;jettySize=auto;html=1;entryX=0;entryY=0.5;entryDx=0;entryDy=0;exitX=0.5;exitY=1;exitDx=0;exitDy=0;" edge="1" parent="1" source="Po7H30uP2uQ3qFQVbLjI-18" target="Po7H30uP2uQ3qFQVbLjI-2">
          <mxGeometry relative="1" as="geometry">
            <Array as="points">
              <mxPoint x="245" y="340" />
            </Array>
          </mxGeometry>
        </mxCell>
        <mxCell id="Po7H30uP2uQ3qFQVbLjI-18" value="&amp;lt;Interface&amp;gt;&lt;br&gt;IGameStatePlayerView" style="rounded=0;whiteSpace=wrap;html=1;" vertex="1" parent="1">
          <mxGeometry x="160" y="260" width="150" height="60" as="geometry" />
        </mxCell>
        <mxCell id="Po7H30uP2uQ3qFQVbLjI-21" value="1" style="text;html=1;strokeColor=none;fillColor=none;align=center;verticalAlign=middle;whiteSpace=wrap;rounded=0;" vertex="1" parent="1">
          <mxGeometry x="225" y="320" width="20" height="20" as="geometry" />
        </mxCell>
        <mxCell id="Po7H30uP2uQ3qFQVbLjI-25" style="edgeStyle=orthogonalEdgeStyle;rounded=0;orthogonalLoop=1;jettySize=auto;html=1;entryX=1;entryY=0.75;entryDx=0;entryDy=0;" edge="1" parent="1" source="Po7H30uP2uQ3qFQVbLjI-23" target="Po7H30uP2uQ3qFQVbLjI-2">
          <mxGeometry relative="1" as="geometry">
            <Array as="points">
              <mxPoint x="500" y="355" />
              <mxPoint x="500" y="355" />
            </Array>
          </mxGeometry>
        </mxCell>
        <mxCell id="Po7H30uP2uQ3qFQVbLjI-23" value="&amp;lt;Interface&amp;gt;&lt;br&gt;IOtherPlayer" style="rounded=0;whiteSpace=wrap;html=1;" vertex="1" parent="1">
          <mxGeometry x="510" y="310" width="150" height="60" as="geometry" />
        </mxCell>
        <mxCell id="Po7H30uP2uQ3qFQVbLjI-24" style="edgeStyle=orthogonalEdgeStyle;rounded=0;orthogonalLoop=1;jettySize=auto;html=1;endArrow=block;endFill=0;dashed=1;exitX=1;exitY=0.25;exitDx=0;exitDy=0;entryX=0;entryY=0.25;entryDx=0;entryDy=0;" edge="1" parent="1" source="Po7H30uP2uQ3qFQVbLjI-2" target="Po7H30uP2uQ3qFQVbLjI-23">
          <mxGeometry relative="1" as="geometry">
            <mxPoint x="330" y="230" as="sourcePoint" />
            <mxPoint x="280" y="230" as="targetPoint" />
          </mxGeometry>
        </mxCell>
        <mxCell id="Po7H30uP2uQ3qFQVbLjI-26" value="1..5" style="text;html=1;strokeColor=none;fillColor=none;align=center;verticalAlign=middle;whiteSpace=wrap;rounded=0;" vertex="1" parent="1">
          <mxGeometry x="480" y="360" width="30" height="20" as="geometry" />
        </mxCell>
        <mxCell id="Po7H30uP2uQ3qFQVbLjI-28" style="edgeStyle=orthogonalEdgeStyle;rounded=0;orthogonalLoop=1;jettySize=auto;html=1;entryX=1;entryY=0.5;entryDx=0;entryDy=0;endArrow=none;endFill=0;" edge="1" parent="1" source="Po7H30uP2uQ3qFQVbLjI-27" target="Po7H30uP2uQ3qFQVbLjI-1">
          <mxGeometry relative="1" as="geometry" />
        </mxCell>
        <mxCell id="Po7H30uP2uQ3qFQVbLjI-27" value="Territory" style="rounded=0;whiteSpace=wrap;html=1;" vertex="1" parent="1">
          <mxGeometry x="525" y="80" width="120" height="60" as="geometry" />
        </mxCell>
        <mxCell id="Po7H30uP2uQ3qFQVbLjI-29" value="42" style="text;html=1;strokeColor=none;fillColor=none;align=center;verticalAlign=middle;whiteSpace=wrap;rounded=0;" vertex="1" parent="1">
          <mxGeometry x="495" y="90" width="30" height="20" as="geometry" />
        </mxCell>
        <mxCell id="Po7H30uP2uQ3qFQVbLjI-30" value="1" style="text;html=1;strokeColor=none;fillColor=none;align=center;verticalAlign=middle;whiteSpace=wrap;rounded=0;" vertex="1" parent="1">
          <mxGeometry x="440" y="200" width="30" height="20" as="geometry" />
        </mxCell>
        <mxCell id="Po7H30uP2uQ3qFQVbLjI-31" value="&amp;lt;Interface&amp;gt;&lt;br&gt;ITerritoryPlayerView" style="rounded=0;whiteSpace=wrap;html=1;" vertex="1" parent="1">
          <mxGeometry x="510" y="200" width="150" height="60" as="geometry" />
        </mxCell>
        <mxCell id="Po7H30uP2uQ3qFQVbLjI-32" style="edgeStyle=orthogonalEdgeStyle;rounded=0;orthogonalLoop=1;jettySize=auto;html=1;endArrow=block;endFill=0;dashed=1;exitX=0.5;exitY=0;exitDx=0;exitDy=0;" edge="1" parent="1" source="Po7H30uP2uQ3qFQVbLjI-31" target="Po7H30uP2uQ3qFQVbLjI-27">
          <mxGeometry relative="1" as="geometry">
            <mxPoint x="450" y="335" as="sourcePoint" />
            <mxPoint x="580" y="150" as="targetPoint" />
          </mxGeometry>
        </mxCell>
        <mxCell id="Po7H30uP2uQ3qFQVbLjI-33" style="edgeStyle=orthogonalEdgeStyle;rounded=0;orthogonalLoop=1;jettySize=auto;html=1;" edge="1" parent="1" source="Po7H30uP2uQ3qFQVbLjI-31" target="Po7H30uP2uQ3qFQVbLjI-2">
          <mxGeometry relative="1" as="geometry">
            <mxPoint x="520" y="365" as="sourcePoint" />
            <mxPoint x="450" y="365" as="targetPoint" />
            <Array as="points">
              <mxPoint x="585" y="280" />
              <mxPoint x="420" y="280" />
            </Array>
          </mxGeometry>
        </mxCell>
        <mxCell id="Po7H30uP2uQ3qFQVbLjI-34" value="42" style="text;html=1;strokeColor=none;fillColor=none;align=center;verticalAlign=middle;whiteSpace=wrap;rounded=0;" vertex="1" parent="1">
          <mxGeometry x="590" y="260" width="30" height="20" as="geometry" />
        </mxCell>
        <mxCell id="Po7H30uP2uQ3qFQVbLjI-38" style="edgeStyle=orthogonalEdgeStyle;rounded=0;orthogonalLoop=1;jettySize=auto;html=1;entryX=0;entryY=0.75;entryDx=0;entryDy=0;" edge="1" parent="1" source="Po7H30uP2uQ3qFQVbLjI-35" target="Po7H30uP2uQ3qFQVbLjI-2">
          <mxGeometry relative="1" as="geometry">
            <Array as="points">
              <mxPoint x="70" y="355" />
            </Array>
          </mxGeometry>
        </mxCell>
        <mxCell id="Po7H30uP2uQ3qFQVbLjI-35" value="PlayerActions" style="rounded=0;whiteSpace=wrap;html=1;" vertex="1" parent="1">
          <mxGeometry x="10" y="260" width="120" height="60" as="geometry" />
        </mxCell>
        <mxCell id="Po7H30uP2uQ3qFQVbLjI-39" value="1" style="text;html=1;strokeColor=none;fillColor=none;align=center;verticalAlign=middle;whiteSpace=wrap;rounded=0;" vertex="1" parent="1">
          <mxGeometry x="70" y="320" width="20" height="20" as="geometry" />
        </mxCell>
        <mxCell id="Po7H30uP2uQ3qFQVbLjI-41" value="1" style="text;html=1;strokeColor=none;fillColor=none;align=center;verticalAlign=middle;whiteSpace=wrap;rounded=0;" vertex="1" parent="1">
          <mxGeometry x="300" y="200" width="20" height="20" as="geometry" />
        </mxCell>
        <mxCell id="Po7H30uP2uQ3qFQVbLjI-44" style="edgeStyle=orthogonalEdgeStyle;rounded=0;orthogonalLoop=1;jettySize=auto;html=1;endArrow=none;endFill=0;" edge="1" parent="1">
          <mxGeometry relative="1" as="geometry">
            <mxPoint x="530" y="410" as="targetPoint" />
            <mxPoint x="680" y="460" as="sourcePoint" />
            <Array as="points">
              <mxPoint x="680" y="410" />
            </Array>
          </mxGeometry>
        </mxCell>
      </root>
    </mxGraphModel>
  </diagram>
</mxfile>
